<mxfile host="Electron" modified="2023-04-20T21:57:19.448Z" agent="Mozilla/5.0 (Windows NT 10.0; Win64; x64) AppleWebKit/537.36 (KHTML, like Gecko) draw.io/21.1.2 Chrome/106.0.5249.199 Electron/21.4.3 Safari/537.36" etag="6ifJsfHf8caP0g09bHVh" version="21.1.2" type="device">
  <diagram name="Page-1" id="zbZBRBukvcdlaNL6MbFI">
    <mxGraphModel dx="3616" dy="1971" grid="0" gridSize="10" guides="1" tooltips="1" connect="1" arrows="1" fold="1" page="0" pageScale="1" pageWidth="850" pageHeight="1100" math="0" shadow="0">
      <root>
        <mxCell id="0" />
        <mxCell id="1" parent="0" />
        <mxCell id="coKmHu0iDxqVJgruF5-J-14" style="edgeStyle=none;curved=1;rounded=0;orthogonalLoop=1;jettySize=auto;html=1;entryX=0.5;entryY=0;entryDx=0;entryDy=0;fontSize=12;startSize=8;endSize=8;" edge="1" parent="1" source="coKmHu0iDxqVJgruF5-J-15" target="coKmHu0iDxqVJgruF5-J-21">
          <mxGeometry relative="1" as="geometry">
            <mxPoint x="-2035.94" y="-811" as="targetPoint" />
          </mxGeometry>
        </mxCell>
        <UserObject label="&lt;div style=&quot;font-size: 1px&quot;&gt;&lt;font style=&quot;font-size: 11.29px; direction: ltr; letter-spacing: 0px; line-height: 120%; opacity: 1;&quot;&gt;Start&lt;/font&gt;&lt;/div&gt;" Function="EN_DIO_Error_T DIO_init(uint8_t pinNumber, EN_DIO_PORT_T portNumber, EN_DIO_DIRECTION_T direction);" tags="Flowchart" id="coKmHu0iDxqVJgruF5-J-15">
          <mxCell style="verticalAlign=middle;align=center;overflow=width;vsdxID=30;fillColor=#dae8fc;shape=stencil(tVLREoIgEPwaHnEQxsl3s/9gEpSJwDko7e+DsEkze2l627vdu5uFRaxyHe8FosR5sCcxqMZ3iO0Rpcp0ApQPCLEasUpaEC3Yi2lS3fOojOhsr3HDmObyMtsVcYqS29Qh5FEfklwrM5OXeUa/yjkcAwfr7TDpiyTfXvjkMR+Vw2A998qaBac5tAKHU1hq3i4oNwjRr9ofvayt/+Rk+yX/4iWA159KpXWKxJx/z0Bopfyw+g4=);strokeColor=#6c8ebf;spacingTop=-1;spacingBottom=-1;spacingLeft=-1;spacingRight=-1;points=[[0.5,1,0],[0.5,0,0],[0,0.5,0],[1,0.5,0]];labelBackgroundColor=none;rounded=1;html=1;whiteSpace=wrap;fontFamily=Calibri;" vertex="1" parent="1">
            <mxGeometry x="-2086.44" y="-900" width="101" height="38" as="geometry" />
          </mxCell>
        </UserObject>
        <mxCell id="coKmHu0iDxqVJgruF5-J-30" style="edgeStyle=none;curved=1;rounded=0;orthogonalLoop=1;jettySize=auto;html=1;entryX=0.5;entryY=0;entryDx=0;entryDy=0;fontSize=12;startSize=8;endSize=8;" edge="1" parent="1" source="coKmHu0iDxqVJgruF5-J-21" target="coKmHu0iDxqVJgruF5-J-27">
          <mxGeometry relative="1" as="geometry" />
        </mxCell>
        <mxCell id="coKmHu0iDxqVJgruF5-J-21" value="&lt;p style=&quot;line-height: 80%;&quot;&gt;&lt;font face=&quot;Calibri&quot;&gt;&lt;span style=&quot;font-size: 11.29px;&quot;&gt;Set &lt;i&gt;Row&amp;nbsp;&lt;/i&gt;(2) Pins as &lt;i&gt;Output,&lt;/i&gt;&amp;nbsp;using &lt;i&gt;DIO_init&lt;/i&gt; function&lt;/span&gt;&lt;/font&gt;&lt;/p&gt;" style="rounded=0;whiteSpace=wrap;html=1;fontSize=16;fillColor=#d5e8d4;strokeColor=#82b366;" vertex="1" parent="1">
          <mxGeometry x="-2116" y="-819" width="160.12" height="50" as="geometry" />
        </mxCell>
        <UserObject label="&lt;div style=&quot;font-size: 1px&quot;&gt;&lt;font style=&quot;font-size: 11.29px; direction: ltr; letter-spacing: 0px; line-height: 120%; opacity: 1;&quot;&gt;Return&lt;/font&gt;&lt;/div&gt;" Function="EN_DIO_Error_T DIO_init(uint8_t pinNumber, EN_DIO_PORT_T portNumber, EN_DIO_DIRECTION_T direction);" tags="Flowchart" id="coKmHu0iDxqVJgruF5-J-24">
          <mxCell style="verticalAlign=middle;align=center;overflow=width;vsdxID=52;fillColor=#d5e8d4;shape=stencil(tVLREoIgEPwaHnEQxsl3s/9gEpSJwDko7e+DsEkze2l627vdu5uFRaxyHe8FosR5sCcxqMZ3iO0Rpcp0ApQPCLEasUpaEC3Yi2lS3fOojOhsr3HDmObyMtsVcYqS29Qh5FEfklwrM5OXeUa/yjkcAwfr7TDpiyTfXvjkMR+Vw2A998qaBac5tAKHU1hq3i4oNwjRr9ofvayt/+Rk+yX/4iWA159KpXWKxJx/z0Bopfyw+g4=);strokeColor=#82b366;spacingTop=-1;spacingBottom=-1;spacingLeft=-1;spacingRight=-1;points=[[0.5,1,0],[0.5,0,0],[0,0.5,0],[1,0.5,0]];labelBackgroundColor=none;rounded=1;html=1;whiteSpace=wrap;fontFamily=Calibri;" vertex="1" parent="1">
            <mxGeometry x="-2086.44" y="-631" width="101" height="38" as="geometry" />
          </mxCell>
        </UserObject>
        <mxCell id="coKmHu0iDxqVJgruF5-J-25" value="KPD_initKPD" style="text;html=1;align=center;verticalAlign=middle;resizable=0;points=[];autosize=1;strokeColor=none;fillColor=none;fontSize=16;" vertex="1" parent="1">
          <mxGeometry x="-2092.44" y="-986" width="113" height="31" as="geometry" />
        </mxCell>
        <mxCell id="coKmHu0iDxqVJgruF5-J-31" style="edgeStyle=none;curved=1;rounded=0;orthogonalLoop=1;jettySize=auto;html=1;entryX=0.5;entryY=0;entryDx=0;entryDy=0;entryPerimeter=0;fontSize=12;startSize=8;endSize=8;" edge="1" parent="1" source="coKmHu0iDxqVJgruF5-J-27" target="coKmHu0iDxqVJgruF5-J-24">
          <mxGeometry relative="1" as="geometry" />
        </mxCell>
        <mxCell id="coKmHu0iDxqVJgruF5-J-27" value="&lt;p style=&quot;line-height: 80%;&quot;&gt;&lt;font face=&quot;Calibri&quot;&gt;&lt;span style=&quot;font-size: 11.29px;&quot;&gt;Set &lt;i&gt;Column&amp;nbsp;&lt;/i&gt;(3) Pins as &lt;i&gt;Input,&lt;/i&gt;&amp;nbsp;using &lt;i&gt;DIO_init&lt;/i&gt; function&lt;/span&gt;&lt;/font&gt;&lt;/p&gt;" style="rounded=0;whiteSpace=wrap;html=1;fontSize=16;fillColor=#d5e8d4;strokeColor=#82b366;" vertex="1" parent="1">
          <mxGeometry x="-2116" y="-725" width="160.12" height="50" as="geometry" />
        </mxCell>
        <mxCell id="coKmHu0iDxqVJgruF5-J-32" value="KPD_enableKPD" style="text;html=1;align=center;verticalAlign=middle;resizable=0;points=[];autosize=1;strokeColor=none;fillColor=none;fontSize=16;" vertex="1" parent="1">
          <mxGeometry x="-1822" y="-986" width="141" height="31" as="geometry" />
        </mxCell>
        <mxCell id="coKmHu0iDxqVJgruF5-J-36" style="edgeStyle=none;curved=1;rounded=0;orthogonalLoop=1;jettySize=auto;html=1;entryX=0.5;entryY=0;entryDx=0;entryDy=0;fontSize=12;startSize=8;endSize=8;" edge="1" parent="1" source="coKmHu0iDxqVJgruF5-J-33" target="coKmHu0iDxqVJgruF5-J-34">
          <mxGeometry relative="1" as="geometry" />
        </mxCell>
        <UserObject label="&lt;div style=&quot;font-size: 1px&quot;&gt;&lt;font style=&quot;font-size: 11.29px; direction: ltr; letter-spacing: 0px; line-height: 120%; opacity: 1;&quot;&gt;Start&lt;/font&gt;&lt;/div&gt;" Function="EN_DIO_Error_T DIO_init(uint8_t pinNumber, EN_DIO_PORT_T portNumber, EN_DIO_DIRECTION_T direction);" tags="Flowchart" id="coKmHu0iDxqVJgruF5-J-33">
          <mxCell style="verticalAlign=middle;align=center;overflow=width;vsdxID=30;fillColor=#dae8fc;shape=stencil(tVLREoIgEPwaHnEQxsl3s/9gEpSJwDko7e+DsEkze2l627vdu5uFRaxyHe8FosR5sCcxqMZ3iO0Rpcp0ApQPCLEasUpaEC3Yi2lS3fOojOhsr3HDmObyMtsVcYqS29Qh5FEfklwrM5OXeUa/yjkcAwfr7TDpiyTfXvjkMR+Vw2A998qaBac5tAKHU1hq3i4oNwjRr9ofvayt/+Rk+yX/4iWA159KpXWKxJx/z0Bopfyw+g4=);strokeColor=#6c8ebf;spacingTop=-1;spacingBottom=-1;spacingLeft=-1;spacingRight=-1;points=[[0.5,1,0],[0.5,0,0],[0,0.5,0],[1,0.5,0]];labelBackgroundColor=none;rounded=1;html=1;whiteSpace=wrap;fontFamily=Calibri;" vertex="1" parent="1">
            <mxGeometry x="-1802" y="-906" width="101" height="38" as="geometry" />
          </mxCell>
        </UserObject>
        <mxCell id="coKmHu0iDxqVJgruF5-J-37" style="edgeStyle=none;curved=1;rounded=0;orthogonalLoop=1;jettySize=auto;html=1;fontSize=12;startSize=8;endSize=8;" edge="1" parent="1" source="coKmHu0iDxqVJgruF5-J-34" target="coKmHu0iDxqVJgruF5-J-35">
          <mxGeometry relative="1" as="geometry" />
        </mxCell>
        <mxCell id="coKmHu0iDxqVJgruF5-J-34" value="&lt;p style=&quot;line-height: 80%;&quot;&gt;&lt;font face=&quot;Calibri&quot;&gt;&lt;span style=&quot;font-size: 11.29px;&quot;&gt;Set &lt;i&gt;Row&lt;/i&gt;&amp;nbsp;Pin&amp;nbsp;&lt;i&gt;Direction &lt;/i&gt;as &lt;i&gt;Output&lt;/i&gt;&lt;/span&gt;&lt;/font&gt;&lt;/p&gt;" style="rounded=0;whiteSpace=wrap;html=1;fontSize=16;fillColor=#d5e8d4;strokeColor=#82b366;" vertex="1" parent="1">
          <mxGeometry x="-1831.56" y="-819" width="160.12" height="50" as="geometry" />
        </mxCell>
        <UserObject label="&lt;div style=&quot;font-size: 1px&quot;&gt;&lt;font style=&quot;font-size: 11.29px; direction: ltr; letter-spacing: 0px; line-height: 120%; opacity: 1;&quot;&gt;Return&lt;/font&gt;&lt;/div&gt;" Function="EN_DIO_Error_T DIO_init(uint8_t pinNumber, EN_DIO_PORT_T portNumber, EN_DIO_DIRECTION_T direction);" tags="Flowchart" id="coKmHu0iDxqVJgruF5-J-35">
          <mxCell style="verticalAlign=middle;align=center;overflow=width;vsdxID=52;fillColor=#d5e8d4;shape=stencil(tVLREoIgEPwaHnEQxsl3s/9gEpSJwDko7e+DsEkze2l627vdu5uFRaxyHe8FosR5sCcxqMZ3iO0Rpcp0ApQPCLEasUpaEC3Yi2lS3fOojOhsr3HDmObyMtsVcYqS29Qh5FEfklwrM5OXeUa/yjkcAwfr7TDpiyTfXvjkMR+Vw2A998qaBac5tAKHU1hq3i4oNwjRr9ofvayt/+Rk+yX/4iWA159KpXWKxJx/z0Bopfyw+g4=);strokeColor=#82b366;spacingTop=-1;spacingBottom=-1;spacingLeft=-1;spacingRight=-1;points=[[0.5,1,0],[0.5,0,0],[0,0.5,0],[1,0.5,0]];labelBackgroundColor=none;rounded=1;html=1;whiteSpace=wrap;fontFamily=Calibri;" vertex="1" parent="1">
            <mxGeometry x="-1802" y="-719" width="101" height="38" as="geometry" />
          </mxCell>
        </UserObject>
        <mxCell id="coKmHu0iDxqVJgruF5-J-38" value="KPD_disableKPD" style="text;html=1;align=center;verticalAlign=middle;resizable=0;points=[];autosize=1;strokeColor=none;fillColor=none;fontSize=16;" vertex="1" parent="1">
          <mxGeometry x="-1534.44" y="-986" width="143" height="31" as="geometry" />
        </mxCell>
        <mxCell id="coKmHu0iDxqVJgruF5-J-39" style="edgeStyle=none;curved=1;rounded=0;orthogonalLoop=1;jettySize=auto;html=1;entryX=0.5;entryY=0;entryDx=0;entryDy=0;fontSize=12;startSize=8;endSize=8;" edge="1" parent="1" source="coKmHu0iDxqVJgruF5-J-40" target="coKmHu0iDxqVJgruF5-J-44">
          <mxGeometry relative="1" as="geometry">
            <mxPoint x="-1462.9399999999998" y="-819" as="targetPoint" />
          </mxGeometry>
        </mxCell>
        <UserObject label="&lt;div style=&quot;font-size: 1px&quot;&gt;&lt;font style=&quot;font-size: 11.29px; direction: ltr; letter-spacing: 0px; line-height: 120%; opacity: 1;&quot;&gt;Start&lt;/font&gt;&lt;/div&gt;" Function="EN_DIO_Error_T DIO_init(uint8_t pinNumber, EN_DIO_PORT_T portNumber, EN_DIO_DIRECTION_T direction);" tags="Flowchart" id="coKmHu0iDxqVJgruF5-J-40">
          <mxCell style="verticalAlign=middle;align=center;overflow=width;vsdxID=30;fillColor=#dae8fc;shape=stencil(tVLREoIgEPwaHnEQxsl3s/9gEpSJwDko7e+DsEkze2l627vdu5uFRaxyHe8FosR5sCcxqMZ3iO0Rpcp0ApQPCLEasUpaEC3Yi2lS3fOojOhsr3HDmObyMtsVcYqS29Qh5FEfklwrM5OXeUa/yjkcAwfr7TDpiyTfXvjkMR+Vw2A998qaBac5tAKHU1hq3i4oNwjRr9ofvayt/+Rk+yX/4iWA159KpXWKxJx/z0Bopfyw+g4=);strokeColor=#6c8ebf;spacingTop=-1;spacingBottom=-1;spacingLeft=-1;spacingRight=-1;points=[[0.5,1,0],[0.5,0,0],[0,0.5,0],[1,0.5,0]];labelBackgroundColor=none;rounded=1;html=1;whiteSpace=wrap;fontFamily=Calibri;" vertex="1" parent="1">
            <mxGeometry x="-1513.44" y="-906" width="101" height="38" as="geometry" />
          </mxCell>
        </UserObject>
        <mxCell id="coKmHu0iDxqVJgruF5-J-41" style="edgeStyle=none;curved=1;rounded=0;orthogonalLoop=1;jettySize=auto;html=1;fontSize=12;startSize=8;endSize=8;exitX=0.5;exitY=1;exitDx=0;exitDy=0;" edge="1" parent="1" source="coKmHu0iDxqVJgruF5-J-44" target="coKmHu0iDxqVJgruF5-J-43">
          <mxGeometry relative="1" as="geometry">
            <mxPoint x="-1462.9399999999998" y="-769" as="sourcePoint" />
          </mxGeometry>
        </mxCell>
        <UserObject label="&lt;div style=&quot;font-size: 1px&quot;&gt;&lt;font style=&quot;font-size: 11.29px; direction: ltr; letter-spacing: 0px; line-height: 120%; opacity: 1;&quot;&gt;Return&lt;/font&gt;&lt;/div&gt;" Function="EN_DIO_Error_T DIO_init(uint8_t pinNumber, EN_DIO_PORT_T portNumber, EN_DIO_DIRECTION_T direction);" tags="Flowchart" id="coKmHu0iDxqVJgruF5-J-43">
          <mxCell style="verticalAlign=middle;align=center;overflow=width;vsdxID=52;fillColor=#d5e8d4;shape=stencil(tVLREoIgEPwaHnEQxsl3s/9gEpSJwDko7e+DsEkze2l627vdu5uFRaxyHe8FosR5sCcxqMZ3iO0Rpcp0ApQPCLEasUpaEC3Yi2lS3fOojOhsr3HDmObyMtsVcYqS29Qh5FEfklwrM5OXeUa/yjkcAwfr7TDpiyTfXvjkMR+Vw2A998qaBac5tAKHU1hq3i4oNwjRr9ofvayt/+Rk+yX/4iWA159KpXWKxJx/z0Bopfyw+g4=);strokeColor=#82b366;spacingTop=-1;spacingBottom=-1;spacingLeft=-1;spacingRight=-1;points=[[0.5,1,0],[0.5,0,0],[0,0.5,0],[1,0.5,0]];labelBackgroundColor=none;rounded=1;html=1;whiteSpace=wrap;fontFamily=Calibri;" vertex="1" parent="1">
            <mxGeometry x="-1513.44" y="-719" width="101" height="38" as="geometry" />
          </mxCell>
        </UserObject>
        <mxCell id="coKmHu0iDxqVJgruF5-J-44" value="&lt;p style=&quot;line-height: 80%;&quot;&gt;&lt;font face=&quot;Calibri&quot;&gt;&lt;span style=&quot;font-size: 11.29px;&quot;&gt;Set &lt;i&gt;Row&lt;/i&gt;&amp;nbsp;Pin&amp;nbsp;&lt;i&gt;Direction &lt;/i&gt;as &lt;i&gt;Input&lt;/i&gt;&lt;/span&gt;&lt;/font&gt;&lt;/p&gt;" style="rounded=0;whiteSpace=wrap;html=1;fontSize=16;fillColor=#d5e8d4;strokeColor=#82b366;" vertex="1" parent="1">
          <mxGeometry x="-1545.44" y="-819" width="165" height="50" as="geometry" />
        </mxCell>
        <mxCell id="coKmHu0iDxqVJgruF5-J-45" style="edgeStyle=none;curved=1;rounded=0;orthogonalLoop=1;jettySize=auto;html=1;entryX=0.5;entryY=0;entryDx=0;entryDy=0;entryPerimeter=0;fontSize=12;startSize=8;endSize=8;" edge="1" parent="1" source="coKmHu0iDxqVJgruF5-J-46" target="coKmHu0iDxqVJgruF5-J-49">
          <mxGeometry relative="1" as="geometry" />
        </mxCell>
        <UserObject label="&lt;div style=&quot;font-size: 1px&quot;&gt;&lt;font style=&quot;font-size: 11.29px; direction: ltr; letter-spacing: 0px; line-height: 120%; opacity: 1;&quot;&gt;Start&lt;/font&gt;&lt;/div&gt;" Function="EN_DIO_Error_T DIO_init(uint8_t pinNumber, EN_DIO_PORT_T portNumber, EN_DIO_DIRECTION_T direction);" tags="Flowchart" id="coKmHu0iDxqVJgruF5-J-46">
          <mxCell style="verticalAlign=middle;align=center;overflow=width;vsdxID=30;fillColor=#dae8fc;shape=stencil(tVLREoIgEPwaHnEQxsl3s/9gEpSJwDko7e+DsEkze2l627vdu5uFRaxyHe8FosR5sCcxqMZ3iO0Rpcp0ApQPCLEasUpaEC3Yi2lS3fOojOhsr3HDmObyMtsVcYqS29Qh5FEfklwrM5OXeUa/yjkcAwfr7TDpiyTfXvjkMR+Vw2A998qaBac5tAKHU1hq3i4oNwjRr9ofvayt/+Rk+yX/4iWA159KpXWKxJx/z0Bopfyw+g4=);strokeColor=#6c8ebf;spacingTop=-1;spacingBottom=-1;spacingLeft=-1;spacingRight=-1;points=[[0.5,1,0],[0.5,0,0],[0,0.5,0],[1,0.5,0]];labelBackgroundColor=none;rounded=1;html=1;whiteSpace=wrap;fontFamily=Calibri;" vertex="1" parent="1">
            <mxGeometry x="-1082.0700000000002" y="-906" width="101" height="38" as="geometry" />
          </mxCell>
        </UserObject>
        <mxCell id="coKmHu0iDxqVJgruF5-J-47" style="edgeStyle=orthogonalEdgeStyle;rounded=1;orthogonalLoop=1;jettySize=auto;html=1;entryX=0.5;entryY=0;entryDx=0;entryDy=0;entryPerimeter=0;fontSize=12;startSize=8;endSize=8;exitX=1;exitY=0.5;exitDx=0;exitDy=0;exitPerimeter=0;" edge="1" parent="1" source="coKmHu0iDxqVJgruF5-J-49" target="coKmHu0iDxqVJgruF5-J-53">
          <mxGeometry relative="1" as="geometry" />
        </mxCell>
        <mxCell id="coKmHu0iDxqVJgruF5-J-48" style="edgeStyle=none;curved=1;rounded=0;orthogonalLoop=1;jettySize=auto;html=1;fontSize=12;startSize=8;endSize=8;entryX=0.5;entryY=0;entryDx=0;entryDy=0;" edge="1" parent="1" source="coKmHu0iDxqVJgruF5-J-49" target="coKmHu0iDxqVJgruF5-J-58">
          <mxGeometry relative="1" as="geometry">
            <mxPoint x="-1031.63" y="-683" as="targetPoint" />
          </mxGeometry>
        </mxCell>
        <UserObject label="" Function="EN_DIO_Error_T DIO_init(uint8_t pinNumber, EN_DIO_PORT_T portNumber, EN_DIO_DIRECTION_T direction);" tags="Flowchart" id="coKmHu0iDxqVJgruF5-J-49">
          <mxCell style="vsdxID=219;fillColor=#fff2cc;shape=stencil(UzV2Ls5ILEhVNTIoLinKz04tz0wpyVA1dlE1MsrMy0gtyiwBslSNXVWNndPyi1LTi/JL81Ig/IJEkEoQKze/DGRCBUSfAUiHkUElhGcK4bpBVOZk5iGpNEVVikeloQHZpsK0YlWLz1QgA+HFtMycHEgIIcujBwlQCBKcxq4A);strokeColor=#d6b656;spacingTop=-1;spacingBottom=-1;spacingLeft=-1;spacingRight=-1;points=[[0,0.5,0],[1,0.5,0],[0.5,0,0],[0.5,1,0]];labelBackgroundColor=none;rounded=1;html=1;whiteSpace=wrap;fontFamily=Calibri;" vertex="1" parent="1">
            <mxGeometry x="-1082.0700000000002" y="-817" width="101" height="76" as="geometry" />
          </mxCell>
        </UserObject>
        <mxCell id="coKmHu0iDxqVJgruF5-J-50" value="&lt;div style=&quot;font-size: 11.29px;&quot;&gt;&lt;i&gt;RetKeyValue&lt;/i&gt;&lt;/div&gt;&lt;div style=&quot;font-size: 11.29px;&quot;&gt;&lt;span style=&quot;background-color: initial;&quot;&gt;pointer is Null&lt;/span&gt;&lt;br&gt;&lt;/div&gt;" style="text;vsdxID=219;fillColor=none;gradientColor=none;strokeColor=none;spacingTop=-1;spacingBottom=-1;spacingLeft=-1;spacingRight=-1;points=[[0,0.5,0],[1,0.5,0],[0.5,0,0],[0.5,1,0]];labelBackgroundColor=none;rounded=1;html=1;whiteSpace=wrap;verticalAlign=middle;align=center;overflow=width;;html=1;fontColor=#000000;fontFamily=Calibri;" vertex="1" parent="coKmHu0iDxqVJgruF5-J-49">
          <mxGeometry x="8.17" y="9.43" width="84.67" height="57.15" as="geometry" />
        </mxCell>
        <mxCell id="coKmHu0iDxqVJgruF5-J-51" style="edgeStyle=none;curved=1;rounded=0;orthogonalLoop=1;jettySize=auto;html=1;fontSize=12;startSize=8;endSize=8;exitX=0.5;exitY=1;exitDx=0;exitDy=0;exitPerimeter=0;" edge="1" parent="1" source="coKmHu0iDxqVJgruF5-J-96" target="coKmHu0iDxqVJgruF5-J-55">
          <mxGeometry relative="1" as="geometry">
            <mxPoint x="-1030.52" y="394" as="sourcePoint" />
          </mxGeometry>
        </mxCell>
        <UserObject label="&lt;div style=&quot;font-size: 1px&quot;&gt;&lt;font style=&quot;font-size: 11.29px; direction: ltr; letter-spacing: 0px; line-height: 120%; opacity: 1;&quot;&gt;Return &lt;i&gt;STD_NOK&lt;/i&gt;&lt;/font&gt;&lt;/div&gt;" Function="EN_DIO_Error_T DIO_init(uint8_t pinNumber, EN_DIO_PORT_T portNumber, EN_DIO_DIRECTION_T direction);" tags="Flowchart" id="coKmHu0iDxqVJgruF5-J-53">
          <mxCell style="verticalAlign=middle;align=center;overflow=width;vsdxID=52;fillColor=#f8cecc;shape=stencil(tVLREoIgEPwaHnEQxsl3s/9gEpSJwDko7e+DsEkze2l627vdu5uFRaxyHe8FosR5sCcxqMZ3iO0Rpcp0ApQPCLEasUpaEC3Yi2lS3fOojOhsr3HDmObyMtsVcYqS29Qh5FEfklwrM5OXeUa/yjkcAwfr7TDpiyTfXvjkMR+Vw2A998qaBac5tAKHU1hq3i4oNwjRr9ofvayt/+Rk+yX/4iWA159KpXWKxJx/z0Bopfyw+g4=);strokeColor=#b85450;spacingTop=-1;spacingBottom=-1;spacingLeft=-1;spacingRight=-1;points=[[0.5,1,0],[0.5,0,0],[0,0.5,0],[1,0.5,0]];labelBackgroundColor=none;rounded=1;html=1;whiteSpace=wrap;fontFamily=Calibri;" vertex="1" parent="1">
            <mxGeometry x="-808" y="-701" width="101" height="38" as="geometry" />
          </mxCell>
        </UserObject>
        <mxCell id="coKmHu0iDxqVJgruF5-J-54" value="&lt;font style=&quot;font-size: 11px;&quot;&gt;True&lt;/font&gt;" style="text;html=1;align=center;verticalAlign=middle;resizable=0;points=[];autosize=1;strokeColor=none;fillColor=none;fontSize=16;" vertex="1" parent="1">
          <mxGeometry x="-931" y="-807" width="40" height="31" as="geometry" />
        </mxCell>
        <UserObject label="&lt;div style=&quot;font-size: 1px&quot;&gt;&lt;font style=&quot;font-size: 11.29px; direction: ltr; letter-spacing: 0px; line-height: 120%; opacity: 1;&quot;&gt;Return &lt;i&gt;STD_OK&lt;/i&gt;&lt;/font&gt;&lt;/div&gt;" Function="EN_DIO_Error_T DIO_init(uint8_t pinNumber, EN_DIO_PORT_T portNumber, EN_DIO_DIRECTION_T direction);" tags="Flowchart" id="coKmHu0iDxqVJgruF5-J-55">
          <mxCell style="verticalAlign=middle;align=center;overflow=width;vsdxID=52;fillColor=#d5e8d4;shape=stencil(tVLREoIgEPwaHnEQxsl3s/9gEpSJwDko7e+DsEkze2l627vdu5uFRaxyHe8FosR5sCcxqMZ3iO0Rpcp0ApQPCLEasUpaEC3Yi2lS3fOojOhsr3HDmObyMtsVcYqS29Qh5FEfklwrM5OXeUa/yjkcAwfr7TDpiyTfXvjkMR+Vw2A998qaBac5tAKHU1hq3i4oNwjRr9ofvayt/+Rk+yX/4iWA159KpXWKxJx/z0Bopfyw+g4=);strokeColor=#82b366;spacingTop=-1;spacingBottom=-1;spacingLeft=-1;spacingRight=-1;points=[[0.5,1,0],[0.5,0,0],[0,0.5,0],[1,0.5,0]];labelBackgroundColor=none;rounded=1;html=1;whiteSpace=wrap;fontFamily=Calibri;" vertex="1" parent="1">
            <mxGeometry x="-1082.0699999999997" y="453" width="101" height="38" as="geometry" />
          </mxCell>
        </UserObject>
        <mxCell id="coKmHu0iDxqVJgruF5-J-90" style="edgeStyle=none;curved=1;rounded=0;orthogonalLoop=1;jettySize=auto;html=1;entryX=0.5;entryY=0;entryDx=0;entryDy=0;fontSize=12;startSize=8;endSize=8;" edge="1" parent="1" source="coKmHu0iDxqVJgruF5-J-56" target="coKmHu0iDxqVJgruF5-J-62">
          <mxGeometry relative="1" as="geometry" />
        </mxCell>
        <mxCell id="coKmHu0iDxqVJgruF5-J-102" style="edgeStyle=orthogonalEdgeStyle;rounded=1;orthogonalLoop=1;jettySize=auto;html=1;fontSize=12;startSize=8;endSize=8;exitX=1;exitY=0.5;exitDx=0;exitDy=0;exitPerimeter=0;entryX=1;entryY=0.5;entryDx=0;entryDy=0;entryPerimeter=0;" edge="1" parent="1" source="coKmHu0iDxqVJgruF5-J-56" target="coKmHu0iDxqVJgruF5-J-55">
          <mxGeometry relative="1" as="geometry">
            <mxPoint x="-800.456012652853" y="433.130466627038" as="targetPoint" />
            <Array as="points">
              <mxPoint x="-821.63" y="-574" />
              <mxPoint x="-821.63" y="472" />
            </Array>
          </mxGeometry>
        </mxCell>
        <UserObject label="" Function="EN_DIO_Error_T DIO_init(uint8_t pinNumber, EN_DIO_PORT_T portNumber, EN_DIO_DIRECTION_T direction);" tags="Flowchart" id="coKmHu0iDxqVJgruF5-J-56">
          <mxCell style="vsdxID=219;fillColor=#fff2cc;shape=stencil(UzV2Ls5ILEhVNTIoLinKz04tz0wpyVA1dlE1MsrMy0gtyiwBslSNXVWNndPyi1LTi/JL81Ig/IJEkEoQKze/DGRCBUSfAUiHkUElhGcK4bpBVOZk5iGpNEVVikeloQHZpsK0YlWLz1QgA+HFtMycHEgIIcujBwlQCBKcxq4A);strokeColor=#d6b656;spacingTop=-1;spacingBottom=-1;spacingLeft=-1;spacingRight=-1;points=[[0,0.5,0],[1,0.5,0],[0.5,0,0],[0.5,1,0]];labelBackgroundColor=none;rounded=1;html=1;whiteSpace=wrap;fontFamily=Calibri;" vertex="1" parent="1">
            <mxGeometry x="-1082.0700000000002" y="-612" width="101" height="76" as="geometry" />
          </mxCell>
        </UserObject>
        <mxCell id="coKmHu0iDxqVJgruF5-J-57" value="&lt;div style=&quot;&quot;&gt;&lt;font style=&quot;font-size: 11.29px;&quot;&gt;&lt;i&gt;RowsCounter&lt;/i&gt; &amp;lt; 2&lt;/font&gt;&lt;br&gt;&lt;/div&gt;" style="text;vsdxID=219;fillColor=none;gradientColor=none;strokeColor=none;spacingTop=-1;spacingBottom=-1;spacingLeft=-1;spacingRight=-1;points=[[0,0.5,0],[1,0.5,0],[0.5,0,0],[0.5,1,0]];labelBackgroundColor=none;rounded=1;html=1;whiteSpace=wrap;verticalAlign=middle;align=center;overflow=width;;html=1;fontColor=#000000;fontFamily=Calibri;" vertex="1" parent="coKmHu0iDxqVJgruF5-J-56">
          <mxGeometry x="8.17" y="9.43" width="84.67" height="57.15" as="geometry" />
        </mxCell>
        <mxCell id="coKmHu0iDxqVJgruF5-J-88" style="edgeStyle=none;curved=1;rounded=0;orthogonalLoop=1;jettySize=auto;html=1;entryX=0.5;entryY=0;entryDx=0;entryDy=0;entryPerimeter=0;fontSize=12;startSize=8;endSize=8;" edge="1" parent="1" source="coKmHu0iDxqVJgruF5-J-58" target="coKmHu0iDxqVJgruF5-J-56">
          <mxGeometry relative="1" as="geometry" />
        </mxCell>
        <mxCell id="coKmHu0iDxqVJgruF5-J-58" value="&lt;p style=&quot;line-height: 80%;&quot;&gt;&lt;span style=&quot;border-color: var(--border-color); font-family: Calibri;&quot;&gt;&lt;font style=&quot;font-size: 11.29px;&quot;&gt;&lt;i&gt;RowsCounter&lt;/i&gt; = 0&lt;/font&gt;&lt;/span&gt;&lt;br&gt;&lt;/p&gt;" style="rounded=0;whiteSpace=wrap;html=1;fontSize=16;fillColor=#d5e8d4;strokeColor=#82b366;" vertex="1" parent="1">
          <mxGeometry x="-1097.0700000000002" y="-701" width="131" height="42.5" as="geometry" />
        </mxCell>
        <mxCell id="coKmHu0iDxqVJgruF5-J-92" style="edgeStyle=none;curved=1;rounded=0;orthogonalLoop=1;jettySize=auto;html=1;entryX=0.5;entryY=0;entryDx=0;entryDy=0;entryPerimeter=0;fontSize=12;startSize=8;endSize=8;" edge="1" parent="1" source="coKmHu0iDxqVJgruF5-J-59" target="coKmHu0iDxqVJgruF5-J-60">
          <mxGeometry relative="1" as="geometry" />
        </mxCell>
        <mxCell id="coKmHu0iDxqVJgruF5-J-59" value="&lt;p style=&quot;line-height: 80%;&quot;&gt;&lt;span style=&quot;border-color: var(--border-color); font-family: Calibri;&quot;&gt;&lt;font style=&quot;font-size: 11.29px;&quot;&gt;&lt;i&gt;ColCounter&lt;/i&gt; = 0&lt;/font&gt;&lt;/span&gt;&lt;br&gt;&lt;/p&gt;" style="rounded=0;whiteSpace=wrap;html=1;fontSize=16;fillColor=#d5e8d4;strokeColor=#82b366;" vertex="1" parent="1">
          <mxGeometry x="-1097.0700000000002" y="-404" width="131" height="42.5" as="geometry" />
        </mxCell>
        <mxCell id="coKmHu0iDxqVJgruF5-J-75" style="edgeStyle=none;curved=1;rounded=0;orthogonalLoop=1;jettySize=auto;html=1;entryX=0.5;entryY=0;entryDx=0;entryDy=0;fontSize=12;startSize=8;endSize=8;exitX=0.5;exitY=1;exitDx=0;exitDy=0;exitPerimeter=0;" edge="1" parent="1" source="coKmHu0iDxqVJgruF5-J-60" target="coKmHu0iDxqVJgruF5-J-63">
          <mxGeometry relative="1" as="geometry">
            <mxPoint x="-1030.9744776119405" y="-220" as="sourcePoint" />
          </mxGeometry>
        </mxCell>
        <UserObject label="" Function="EN_DIO_Error_T DIO_init(uint8_t pinNumber, EN_DIO_PORT_T portNumber, EN_DIO_DIRECTION_T direction);" tags="Flowchart" id="coKmHu0iDxqVJgruF5-J-60">
          <mxCell style="vsdxID=219;fillColor=#fff2cc;shape=stencil(UzV2Ls5ILEhVNTIoLinKz04tz0wpyVA1dlE1MsrMy0gtyiwBslSNXVWNndPyi1LTi/JL81Ig/IJEkEoQKze/DGRCBUSfAUiHkUElhGcK4bpBVOZk5iGpNEVVikeloQHZpsK0YlWLz1QgA+HFtMycHEgIIcujBwlQCBKcxq4A);strokeColor=#d6b656;spacingTop=-1;spacingBottom=-1;spacingLeft=-1;spacingRight=-1;points=[[0,0.5,0],[1,0.5,0],[0.5,0,0],[0.5,1,0]];labelBackgroundColor=none;rounded=1;html=1;whiteSpace=wrap;fontFamily=Calibri;" vertex="1" parent="1">
            <mxGeometry x="-1082.0700000000002" y="-313" width="101" height="76" as="geometry" />
          </mxCell>
        </UserObject>
        <mxCell id="coKmHu0iDxqVJgruF5-J-61" value="&lt;span style=&quot;border-color: var(--border-color); font-size: 11.29px;&quot;&gt;&lt;i&gt;ColCounter&lt;/i&gt;&lt;span style=&quot;background-color: initial; font-size: 12px;&quot;&gt;&lt;font style=&quot;font-size: 11.29px;&quot;&gt;&amp;nbsp;&amp;lt; 3&lt;/font&gt;&lt;/span&gt;&lt;br&gt;&lt;/span&gt;" style="text;vsdxID=219;fillColor=none;gradientColor=none;strokeColor=none;spacingTop=-1;spacingBottom=-1;spacingLeft=-1;spacingRight=-1;points=[[0,0.5,0],[1,0.5,0],[0.5,0,0],[0.5,1,0]];labelBackgroundColor=none;rounded=1;html=1;whiteSpace=wrap;verticalAlign=middle;align=center;overflow=width;;html=1;fontColor=#000000;fontFamily=Calibri;" vertex="1" parent="coKmHu0iDxqVJgruF5-J-60">
          <mxGeometry x="8.17" y="9.43" width="84.67" height="57.15" as="geometry" />
        </mxCell>
        <mxCell id="coKmHu0iDxqVJgruF5-J-91" style="edgeStyle=none;curved=1;rounded=0;orthogonalLoop=1;jettySize=auto;html=1;entryX=0.5;entryY=0;entryDx=0;entryDy=0;fontSize=12;startSize=8;endSize=8;" edge="1" parent="1" source="coKmHu0iDxqVJgruF5-J-62" target="coKmHu0iDxqVJgruF5-J-59">
          <mxGeometry relative="1" as="geometry" />
        </mxCell>
        <mxCell id="coKmHu0iDxqVJgruF5-J-62" value="&lt;p style=&quot;line-height: 80%;&quot;&gt;&lt;font face=&quot;Calibri&quot;&gt;&lt;span style=&quot;font-size: 11.29px;&quot;&gt;Set &lt;i&gt;Row&lt;/i&gt; Pin Value to&lt;i&gt; Low&lt;/i&gt;&lt;/span&gt;&lt;/font&gt;&lt;/p&gt;" style="rounded=0;whiteSpace=wrap;html=1;fontSize=16;fillColor=#d5e8d4;strokeColor=#82b366;" vertex="1" parent="1">
          <mxGeometry x="-1097.0700000000002" y="-490" width="131" height="42.5" as="geometry" />
        </mxCell>
        <mxCell id="coKmHu0iDxqVJgruF5-J-76" style="edgeStyle=none;curved=1;rounded=0;orthogonalLoop=1;jettySize=auto;html=1;fontSize=12;startSize=8;endSize=8;" edge="1" parent="1" source="coKmHu0iDxqVJgruF5-J-63" target="coKmHu0iDxqVJgruF5-J-64">
          <mxGeometry relative="1" as="geometry" />
        </mxCell>
        <mxCell id="coKmHu0iDxqVJgruF5-J-63" value="&lt;p style=&quot;line-height: 80%;&quot;&gt;&lt;font face=&quot;Calibri&quot;&gt;&lt;span style=&quot;font-size: 11.29px;&quot;&gt;Read &lt;i&gt;Col&lt;/i&gt; Pin Value&lt;/span&gt;&lt;/font&gt;&lt;/p&gt;" style="rounded=0;whiteSpace=wrap;html=1;fontSize=16;fillColor=#d5e8d4;strokeColor=#82b366;" vertex="1" parent="1">
          <mxGeometry x="-1096.02" y="-191" width="131" height="42.5" as="geometry" />
        </mxCell>
        <mxCell id="coKmHu0iDxqVJgruF5-J-78" style="edgeStyle=orthogonalEdgeStyle;rounded=1;orthogonalLoop=1;jettySize=auto;html=1;entryX=0.5;entryY=0;entryDx=0;entryDy=0;fontSize=12;startSize=8;endSize=8;exitX=1;exitY=0.5;exitDx=0;exitDy=0;exitPerimeter=0;" edge="1" parent="1" source="coKmHu0iDxqVJgruF5-J-64" target="coKmHu0iDxqVJgruF5-J-66">
          <mxGeometry relative="1" as="geometry" />
        </mxCell>
        <UserObject label="" Function="EN_DIO_Error_T DIO_init(uint8_t pinNumber, EN_DIO_PORT_T portNumber, EN_DIO_DIRECTION_T direction);" tags="Flowchart" id="coKmHu0iDxqVJgruF5-J-64">
          <mxCell style="vsdxID=219;fillColor=#fff2cc;shape=stencil(UzV2Ls5ILEhVNTIoLinKz04tz0wpyVA1dlE1MsrMy0gtyiwBslSNXVWNndPyi1LTi/JL81Ig/IJEkEoQKze/DGRCBUSfAUiHkUElhGcK4bpBVOZk5iGpNEVVikeloQHZpsK0YlWLz1QgA+HFtMycHEgIIcujBwlQCBKcxq4A);strokeColor=#d6b656;spacingTop=-1;spacingBottom=-1;spacingLeft=-1;spacingRight=-1;points=[[0,0.5,0],[1,0.5,0],[0.5,0,0],[0.5,1,0]];labelBackgroundColor=none;rounded=1;html=1;whiteSpace=wrap;fontFamily=Calibri;" vertex="1" parent="1">
            <mxGeometry x="-1082.0700000000002" y="-96" width="101" height="76" as="geometry" />
          </mxCell>
        </UserObject>
        <mxCell id="coKmHu0iDxqVJgruF5-J-65" value="&lt;span style=&quot;border-color: var(--border-color); font-size: 11.29px;&quot;&gt;Value = &lt;i&gt;Low&lt;/i&gt;&lt;br&gt;&lt;/span&gt;" style="text;vsdxID=219;fillColor=none;gradientColor=none;strokeColor=none;spacingTop=-1;spacingBottom=-1;spacingLeft=-1;spacingRight=-1;points=[[0,0.5,0],[1,0.5,0],[0.5,0,0],[0.5,1,0]];labelBackgroundColor=none;rounded=1;html=1;whiteSpace=wrap;verticalAlign=middle;align=center;overflow=width;;html=1;fontColor=#000000;fontFamily=Calibri;" vertex="1" parent="coKmHu0iDxqVJgruF5-J-64">
          <mxGeometry x="8.17" y="9.43" width="84.67" height="57.15" as="geometry" />
        </mxCell>
        <mxCell id="coKmHu0iDxqVJgruF5-J-82" style="edgeStyle=none;curved=1;rounded=0;orthogonalLoop=1;jettySize=auto;html=1;entryX=0.5;entryY=0;entryDx=0;entryDy=0;fontSize=12;startSize=8;endSize=8;" edge="1" parent="1" source="coKmHu0iDxqVJgruF5-J-66" target="coKmHu0iDxqVJgruF5-J-67">
          <mxGeometry relative="1" as="geometry" />
        </mxCell>
        <mxCell id="coKmHu0iDxqVJgruF5-J-66" value="&lt;p style=&quot;line-height: 80%;&quot;&gt;&lt;font face=&quot;Calibri&quot;&gt;&lt;span style=&quot;font-size: 11.29px;&quot;&gt;Delay 20ms (Debouncing)&lt;/span&gt;&lt;/font&gt;&lt;/p&gt;" style="rounded=0;whiteSpace=wrap;html=1;fontSize=16;fillColor=#d5e8d4;strokeColor=#82b366;" vertex="1" parent="1">
          <mxGeometry x="-981.07" y="23" width="131" height="42.5" as="geometry" />
        </mxCell>
        <mxCell id="coKmHu0iDxqVJgruF5-J-99" style="edgeStyle=orthogonalEdgeStyle;rounded=1;orthogonalLoop=1;jettySize=auto;html=1;entryX=1;entryY=0.5;entryDx=0;entryDy=0;fontSize=12;startSize=8;endSize=8;" edge="1" parent="1" source="coKmHu0iDxqVJgruF5-J-67" target="coKmHu0iDxqVJgruF5-J-93">
          <mxGeometry relative="1" as="geometry" />
        </mxCell>
        <mxCell id="coKmHu0iDxqVJgruF5-J-67" value="&lt;p style=&quot;line-height: 80%;&quot;&gt;&lt;i style=&quot;border-color: var(--border-color); font-family: Calibri; font-size: 11.29px;&quot;&gt;RetKeyValue&lt;/i&gt;&lt;span style=&quot;border-color: var(--border-color); font-family: Calibri; font-size: 11.29px;&quot;&gt; =&amp;nbsp; ButtonValue, i.e.: Key is pressed&lt;/span&gt;&lt;br&gt;&lt;/p&gt;" style="rounded=0;whiteSpace=wrap;html=1;fontSize=16;fillColor=#d5e8d4;strokeColor=#82b366;" vertex="1" parent="1">
          <mxGeometry x="-981.08" y="117" width="131" height="42.5" as="geometry" />
        </mxCell>
        <mxCell id="coKmHu0iDxqVJgruF5-J-70" style="edgeStyle=orthogonalEdgeStyle;rounded=1;orthogonalLoop=1;jettySize=auto;html=1;fontSize=12;startSize=8;endSize=8;exitX=0;exitY=0.5;exitDx=0;exitDy=0;exitPerimeter=0;" edge="1" parent="1" source="coKmHu0iDxqVJgruF5-J-96">
          <mxGeometry relative="1" as="geometry">
            <mxPoint x="-1037" y="-638" as="targetPoint" />
            <mxPoint x="-1478.3334147135417" y="173" as="sourcePoint" />
            <Array as="points">
              <mxPoint x="-1264" y="353" />
              <mxPoint x="-1264" y="-638" />
            </Array>
          </mxGeometry>
        </mxCell>
        <mxCell id="coKmHu0iDxqVJgruF5-J-95" style="edgeStyle=orthogonalEdgeStyle;rounded=1;orthogonalLoop=1;jettySize=auto;html=1;fontSize=12;startSize=8;endSize=8;exitX=0;exitY=0.5;exitDx=0;exitDy=0;entryX=0;entryY=0.5;entryDx=0;entryDy=0;entryPerimeter=0;" edge="1" parent="1" source="coKmHu0iDxqVJgruF5-J-69" target="coKmHu0iDxqVJgruF5-J-60">
          <mxGeometry relative="1" as="geometry">
            <mxPoint x="-1198.296717529297" y="-346.6666437784829" as="targetPoint" />
          </mxGeometry>
        </mxCell>
        <mxCell id="coKmHu0iDxqVJgruF5-J-98" style="edgeStyle=orthogonalEdgeStyle;rounded=1;orthogonalLoop=1;jettySize=auto;html=1;entryX=0;entryY=0.5;entryDx=0;entryDy=0;fontSize=12;startSize=8;endSize=8;" edge="1" parent="1" source="coKmHu0iDxqVJgruF5-J-69" target="coKmHu0iDxqVJgruF5-J-93">
          <mxGeometry relative="1" as="geometry" />
        </mxCell>
        <mxCell id="coKmHu0iDxqVJgruF5-J-69" value="&lt;p style=&quot;line-height: 80%;&quot;&gt;&lt;span style=&quot;border-color: var(--border-color); font-family: Calibri; font-size: 11.29px;&quot;&gt;Increment &lt;/span&gt;&lt;i style=&quot;border-color: var(--border-color); font-family: Calibri; font-size: 11.29px;&quot;&gt;ColCounter&lt;/i&gt;&lt;br&gt;&lt;/p&gt;" style="rounded=0;whiteSpace=wrap;html=1;fontSize=16;fillColor=#d5e8d4;strokeColor=#82b366;" vertex="1" parent="1">
          <mxGeometry x="-1213.0700000000002" y="23" width="131" height="42.5" as="geometry" />
        </mxCell>
        <mxCell id="coKmHu0iDxqVJgruF5-J-79" style="edgeStyle=orthogonalEdgeStyle;rounded=1;orthogonalLoop=1;jettySize=auto;html=1;entryX=0.5;entryY=0.024;entryDx=0;entryDy=0;fontSize=12;startSize=8;endSize=8;exitX=0;exitY=0.5;exitDx=0;exitDy=0;exitPerimeter=0;entryPerimeter=0;" edge="1" parent="1" source="coKmHu0iDxqVJgruF5-J-64" target="coKmHu0iDxqVJgruF5-J-69">
          <mxGeometry relative="1" as="geometry">
            <mxPoint x="-1147.5800000000004" y="22.999999999999773" as="targetPoint" />
          </mxGeometry>
        </mxCell>
        <mxCell id="coKmHu0iDxqVJgruF5-J-80" value="&lt;font style=&quot;font-size: 11.29px;&quot;&gt;True&lt;/font&gt;" style="text;html=1;align=center;verticalAlign=middle;resizable=0;points=[];autosize=1;strokeColor=none;fillColor=none;fontSize=16;" vertex="1" parent="1">
          <mxGeometry x="-966.08" y="-86" width="41" height="31" as="geometry" />
        </mxCell>
        <mxCell id="coKmHu0iDxqVJgruF5-J-81" value="&lt;font style=&quot;font-size: 11.29px;&quot;&gt;False&lt;/font&gt;" style="text;html=1;align=center;verticalAlign=middle;resizable=0;points=[];autosize=1;strokeColor=none;fillColor=none;fontSize=16;" vertex="1" parent="1">
          <mxGeometry x="-1140.08" y="-86" width="46" height="31" as="geometry" />
        </mxCell>
        <mxCell id="coKmHu0iDxqVJgruF5-J-84" style="edgeStyle=orthogonalEdgeStyle;rounded=1;orthogonalLoop=1;jettySize=auto;html=1;fontSize=12;startSize=8;endSize=8;exitX=1;exitY=0.5;exitDx=0;exitDy=0;exitPerimeter=0;" edge="1" parent="1" source="coKmHu0iDxqVJgruF5-J-60">
          <mxGeometry relative="1" as="geometry">
            <mxPoint x="-1028.63" y="-637" as="targetPoint" />
            <Array as="points">
              <mxPoint x="-887" y="-275" />
              <mxPoint x="-887" y="-637" />
            </Array>
          </mxGeometry>
        </mxCell>
        <mxCell id="coKmHu0iDxqVJgruF5-J-85" value="&lt;font style=&quot;font-size: 11.29px;&quot;&gt;False&lt;/font&gt;" style="text;html=1;align=center;verticalAlign=middle;resizable=0;points=[];autosize=1;strokeColor=none;fillColor=none;fontSize=16;" vertex="1" parent="1">
          <mxGeometry x="-966.07" y="-304" width="46" height="31" as="geometry" />
        </mxCell>
        <mxCell id="coKmHu0iDxqVJgruF5-J-100" style="edgeStyle=none;curved=1;rounded=0;orthogonalLoop=1;jettySize=auto;html=1;entryX=0.5;entryY=0;entryDx=0;entryDy=0;entryPerimeter=0;fontSize=12;startSize=8;endSize=8;" edge="1" parent="1" source="coKmHu0iDxqVJgruF5-J-93" target="coKmHu0iDxqVJgruF5-J-96">
          <mxGeometry relative="1" as="geometry" />
        </mxCell>
        <mxCell id="coKmHu0iDxqVJgruF5-J-93" value="&lt;p style=&quot;line-height: 80%;&quot;&gt;&lt;font face=&quot;Calibri&quot;&gt;&lt;span style=&quot;font-size: 11.29px;&quot;&gt;Set &lt;i&gt;Row&lt;/i&gt; Pin Value to&lt;i&gt;&amp;nbsp;High&lt;/i&gt;&lt;/span&gt;&lt;/font&gt;&lt;/p&gt;" style="rounded=0;whiteSpace=wrap;html=1;fontSize=16;fillColor=#d5e8d4;strokeColor=#82b366;" vertex="1" parent="1">
          <mxGeometry x="-1097.0700000000002" y="222" width="131" height="42.5" as="geometry" />
        </mxCell>
        <UserObject label="" Function="EN_DIO_Error_T DIO_init(uint8_t pinNumber, EN_DIO_PORT_T portNumber, EN_DIO_DIRECTION_T direction);" tags="Flowchart" id="coKmHu0iDxqVJgruF5-J-96">
          <mxCell style="vsdxID=219;fillColor=#fff2cc;shape=stencil(UzV2Ls5ILEhVNTIoLinKz04tz0wpyVA1dlE1MsrMy0gtyiwBslSNXVWNndPyi1LTi/JL81Ig/IJEkEoQKze/DGRCBUSfAUiHkUElhGcK4bpBVOZk5iGpNEVVikeloQHZpsK0YlWLz1QgA+HFtMycHEgIIcujBwlQCBKcxq4A);strokeColor=#d6b656;spacingTop=-1;spacingBottom=-1;spacingLeft=-1;spacingRight=-1;points=[[0,0.5,0],[1,0.5,0],[0.5,0,0],[0.5,1,0]];labelBackgroundColor=none;rounded=1;html=1;whiteSpace=wrap;fontFamily=Calibri;" vertex="1" parent="1">
            <mxGeometry x="-1081.02" y="315" width="101" height="76" as="geometry" />
          </mxCell>
        </UserObject>
        <mxCell id="coKmHu0iDxqVJgruF5-J-97" value="&lt;span style=&quot;border-color: var(--border-color); font-size: 11.29px;&quot;&gt;Key is pressed&lt;br&gt;&lt;/span&gt;" style="text;vsdxID=219;fillColor=none;gradientColor=none;strokeColor=none;spacingTop=-1;spacingBottom=-1;spacingLeft=-1;spacingRight=-1;points=[[0,0.5,0],[1,0.5,0],[0.5,0,0],[0.5,1,0]];labelBackgroundColor=none;rounded=1;html=1;whiteSpace=wrap;verticalAlign=middle;align=center;overflow=width;;html=1;fontColor=#000000;fontFamily=Calibri;" vertex="1" parent="coKmHu0iDxqVJgruF5-J-96">
          <mxGeometry x="8.17" y="9.43" width="84.67" height="57.15" as="geometry" />
        </mxCell>
        <mxCell id="coKmHu0iDxqVJgruF5-J-101" value="&lt;font style=&quot;font-size: 11.29px;&quot;&gt;False&lt;/font&gt;" style="text;html=1;align=center;verticalAlign=middle;resizable=0;points=[];autosize=1;strokeColor=none;fillColor=none;fontSize=16;" vertex="1" parent="1">
          <mxGeometry x="-1143.0700000000002" y="323" width="46" height="31" as="geometry" />
        </mxCell>
        <mxCell id="coKmHu0iDxqVJgruF5-J-103" value="&lt;font style=&quot;font-size: 11.29px;&quot;&gt;False&lt;/font&gt;" style="text;html=1;align=center;verticalAlign=middle;resizable=0;points=[];autosize=1;strokeColor=none;fillColor=none;fontSize=16;" vertex="1" parent="1">
          <mxGeometry x="-876.63" y="-601" width="46" height="31" as="geometry" />
        </mxCell>
        <mxCell id="coKmHu0iDxqVJgruF5-J-105" value="&lt;font style=&quot;font-size: 11.29px;&quot;&gt;True&lt;/font&gt;" style="text;html=1;align=center;verticalAlign=middle;resizable=0;points=[];autosize=1;strokeColor=none;fillColor=none;fontSize=16;" vertex="1" parent="1">
          <mxGeometry x="-1031" y="-533" width="41" height="31" as="geometry" />
        </mxCell>
        <mxCell id="coKmHu0iDxqVJgruF5-J-107" value="&lt;font style=&quot;font-size: 11.29px;&quot;&gt;False&lt;/font&gt;" style="text;html=1;align=center;verticalAlign=middle;resizable=0;points=[];autosize=1;strokeColor=none;fillColor=none;fontSize=16;" vertex="1" parent="1">
          <mxGeometry x="-1033" y="-741" width="46" height="31" as="geometry" />
        </mxCell>
        <mxCell id="coKmHu0iDxqVJgruF5-J-108" value="&lt;font style=&quot;font-size: 11.29px;&quot;&gt;True&lt;/font&gt;" style="text;html=1;align=center;verticalAlign=middle;resizable=0;points=[];autosize=1;strokeColor=none;fillColor=none;fontSize=16;" vertex="1" parent="1">
          <mxGeometry x="-1031" y="-234" width="41" height="31" as="geometry" />
        </mxCell>
        <mxCell id="coKmHu0iDxqVJgruF5-J-109" value="&lt;font style=&quot;font-size: 11.29px;&quot;&gt;True&lt;/font&gt;" style="text;html=1;align=center;verticalAlign=middle;resizable=0;points=[];autosize=1;strokeColor=none;fillColor=none;fontSize=16;" vertex="1" parent="1">
          <mxGeometry x="-1031" y="402" width="41" height="31" as="geometry" />
        </mxCell>
        <mxCell id="coKmHu0iDxqVJgruF5-J-110" value="KPD_getPressedKey" style="text;whiteSpace=wrap;html=1;fontSize=16;" vertex="1" parent="1">
          <mxGeometry x="-1096.02" y="-991" width="178" height="41" as="geometry" />
        </mxCell>
      </root>
    </mxGraphModel>
  </diagram>
</mxfile>
